<?xml version="1.0" standalone="no"?><!DOCTYPE svg PUBLIC "-//W3C//DTD SVG 1.1//EN" "http://www.w3.org/Graphics/SVG/1.1/DTD/svg11.dtd"><svg t="1703168197179" class="icon" viewBox="0 0 1024 1024" version="1.1" xmlns="http://www.w3.org/2000/svg" p-id="2216" xmlns:xlink="http://www.w3.org/1999/xlink" width="64" height="64"><path d="M716.8 0H307.2C137.5488 0 0 137.5488 0 307.2v409.6c0 169.6512 137.5488 307.2 307.2 307.2h409.6c169.6512 0 307.2-137.5488 307.2-307.2V307.2c0-169.6512-137.5488-307.2-307.2-307.2z" fill="#E3F0FF" p-id="2217"></path><path d="M204.8 358.4l438.3744-99.6352A102.1696 102.1696 0 0 1 768 358.4H204.8zM614.4 563.2a25.6 25.6 0 0 1 25.6-25.6h128a25.6 25.6 0 1 1 0 51.2h-128a25.6 25.6 0 0 1-25.6-25.6z" fill="#6CB0FF" p-id="2218"></path><path d="M204.8 435.2a51.2 51.2 0 0 1 51.2-51.2h486.4a51.2 51.2 0 0 1 51.2 51.2v76.8h-153.6a51.2 51.2 0 1 0 0 102.4h153.6v102.4a51.2 51.2 0 0 1-51.2 51.2H256a51.2 51.2 0 0 1-51.2-51.2V435.2z m250.2144 154.24a81.4336 81.4336 0 1 0-19.2 19.2l47.1552 47.104a13.568 13.568 0 1 0 19.2-19.1744l-47.1552-47.1296z m-12.0832-47.2064a54.272 54.272 0 1 1-108.5952 0 54.272 54.272 0 0 1 108.5952 0z" fill="#0B77FF" p-id="2219"></path><path d="M345.1648 531.3792a12.8 12.8 0 1 1 25.6 0 12.8 12.8 0 0 1-25.6 0z" fill="#FFFFFF" p-id="2220"></path></svg>