<?xml version="1.0" standalone="no"?><!DOCTYPE svg PUBLIC "-//W3C//DTD SVG 1.1//EN" "http://www.w3.org/Graphics/SVG/1.1/DTD/svg11.dtd"><svg t="1703168811943" class="icon" viewBox="0 0 1024 1024" version="1.1" xmlns="http://www.w3.org/2000/svg" p-id="2543" xmlns:xlink="http://www.w3.org/1999/xlink" width="64" height="64"><path d="M716.8 0H307.2C137.5488 0 0 137.5488 0 307.2v409.6c0 169.6512 137.5488 307.2 307.2 307.2h409.6c169.6512 0 307.2-137.5488 307.2-307.2V307.2c0-169.6512-137.5488-307.2-307.2-307.2z" fill="#FFEFCF" p-id="2544"></path><path d="M332.8 716.8a51.2 51.2 0 0 0 51.2 51.2h307.2a51.2 51.2 0 0 0 51.2-51.2V358.4a51.2 51.2 0 0 0-51.2-51.2v358.4a51.2 51.2 0 0 1-51.2 51.2H332.8z" fill="#FEBF60" p-id="2545"></path><path d="M614.4 256a51.2 51.2 0 0 1 51.2 51.2v51.2h-51.2a51.2 51.2 0 0 1-51.2-51.2v-51.2h51.2z m0 128h51.2v256a51.2 51.2 0 0 1-51.2 51.2H332.8a51.2 51.2 0 0 1-51.2-51.2V307.2a51.2 51.2 0 0 1 51.2-51.2h204.8v51.2a76.8 76.8 0 0 0 76.8 76.8z m-268.8-51.2a12.8 12.8 0 0 0 0 25.6h102.4a12.8 12.8 0 0 0 0-25.6h-102.4z m-12.8 89.6a12.8 12.8 0 0 0 12.8 12.8h102.4a12.8 12.8 0 0 0 0-25.6h-102.4a12.8 12.8 0 0 0-12.8 12.8z m12.8 64a12.8 12.8 0 0 0 0 25.6h256a12.8 12.8 0 0 0 0-25.6h-256z" fill="#FA8A0C" p-id="2546"></path><path d="M307.2 614.4a25.6 25.6 0 0 1 25.6-25.6h204.8a25.6 25.6 0 1 1 0 51.2h-204.8a25.6 25.6 0 0 1-25.6-25.6zM588.8 614.4a25.6 25.6 0 1 1 51.2 0 25.6 25.6 0 1 1-51.2 0z" fill="#FFFFFF" p-id="2547"></path></svg>