<?xml version="1.0" standalone="no"?><!DOCTYPE svg PUBLIC "-//W3C//DTD SVG 1.1//EN" "http://www.w3.org/Graphics/SVG/1.1/DTD/svg11.dtd"><svg t="1703169051880" class="icon" viewBox="0 0 1024 1024" version="1.1" xmlns="http://www.w3.org/2000/svg" p-id="4288" xmlns:xlink="http://www.w3.org/1999/xlink" width="64" height="64"><path d="M716.8 0H307.2C137.5488 0 0 137.5488 0 307.2v409.6c0 169.6512 137.5488 307.2 307.2 307.2h409.6c169.6512 0 307.2-137.5488 307.2-307.2V307.2c0-169.6512-137.5488-307.2-307.2-307.2z" fill="#ffebeb" p-id="4289" data-spm-anchor-id="a313x.collections_detail.0.i25.634f3a81PvTTjN" class=""></path><path d="M742.4 486.4a153.4976 153.4976 0 0 1-71.936 130.1248l50.048 87.552A25.6 25.6 0 0 1 698.2912 742.4h-221.6704a25.6 25.6 0 0 1-22.8864-37.0432l46.08-92.16 0.3328-0.6656 0.256-0.512A154.0096 154.0096 0 0 1 443.9552 537.6H563.2v-179.2h-59.3408A153.6 153.6 0 0 1 742.4 486.4z" fill="#ff8e91" p-id="4290" data-spm-anchor-id="a313x.collections_detail.0.i29.634f3a81PvTTjN" class="selected"></path><path d="M640 422.4a191.8464 191.8464 0 0 1-89.9072 162.6368l68.0192 119.04A25.6 25.6 0 0 1 595.8912 742.4H297.4208a25.6 25.6 0 0 1-22.8864-37.0432l62.976-125.952A192 192 0 1 1 640 422.4z m-88.0128-34.7904a12.8 12.8 0 0 0-18.0992 0.256l-81.3312 83.7632-53.5808-48.1536a12.8 12.8 0 0 0-19.1744 2.3552l-43.392 44.672a12.8 12.8 0 0 0 18.3808 17.8432l36.352-37.4528 51.8912 46.592a12.8 12.8 0 0 0 19.6608 0.4608l0.3584-0.384 89.1904-91.8528a12.8 12.8 0 0 0-0.256-18.0992z" fill="#fe5570" p-id="4291" data-spm-anchor-id="a313x.collections_detail.0.i24.634f3a81PvTTjN" class=""></path><path d="M353.88605 380.477203m-6.082808-17.236571l-0.008519-0.024141q-6.082807-17.236571-23.319378-11.153763l-0.02414 0.008519q-17.236571 6.082807-11.153764 23.319378l0.008519 0.024141q6.082807 17.236571 23.319378 11.153763l0.024141-0.008519q17.236571-6.082807 11.153763-23.319378Z" fill="#FFFFFF" p-id="4292"></path><path d="M334.976 325.504a13.568 13.568 0 0 0 23.0912-2.6112l4.8128-10.5472a20.48 20.48 0 0 1 11.8272-10.8544l23.7312-8.3712a11.9808 11.9808 0 0 0 7.1424-15.7952 11.8016 11.8016 0 0 0-14.464-6.912c-37.632 11.776-52.9152 22.6048-58.5216 44.6464a12.3136 12.3136 0 0 0 2.3808 10.4448z" fill="#FFFFFF" p-id="4293"></path></svg>