<?xml version="1.0" standalone="no"?><!DOCTYPE svg PUBLIC "-//W3C//DTD SVG 1.1//EN" "http://www.w3.org/Graphics/SVG/1.1/DTD/svg11.dtd"><svg t="1703168231515" class="icon" viewBox="0 0 1024 1024" version="1.1" xmlns="http://www.w3.org/2000/svg" p-id="2379" xmlns:xlink="http://www.w3.org/1999/xlink" width="64" height="64"><path d="M716.8 0H307.2C137.5488 0 0 137.5488 0 307.2v409.6c0 169.6512 137.5488 307.2 307.2 307.2h409.6c169.6512 0 307.2-137.5488 307.2-307.2V307.2c0-169.6512-137.5488-307.2-307.2-307.2z" fill="#D8F4EE" p-id="2380"></path><path d="M691.8656 639.1296a257.4592 257.4592 0 0 1-52.736 52.736l60.928 60.928a37.2992 37.2992 0 0 0 52.736-52.736l-60.928-60.928z" fill="#75E8CD" p-id="2381"></path><path d="M486.4 716.8a230.4 230.4 0 1 0 0-460.8 230.4 230.4 0 0 0 0 460.8z m130.9696-302.5152a16.64 16.64 0 0 1 0.3584 23.5008l-115.84 119.296a16.5376 16.5376 0 0 1-3.84 3.3792 16.64 16.64 0 0 1-22.144-3.5072l-67.328-60.5184-47.232 48.64a16.64 16.64 0 0 1-23.8336-23.168l56.32-57.984a16.6912 16.6912 0 0 1 24.8832-3.072l69.5552 62.5152 105.6-108.7232a16.6144 16.6144 0 0 1 23.5008-0.3584z" fill="#01C3A3" p-id="2382"></path><path d="M341.257236 436.535528m-7.948259-21.87091l0 0q-7.948258-21.87091-29.819168-13.922652l0 0q-21.87091 7.948258-13.922652 29.819169l0 0q7.948258 21.87091 29.819168 13.922651l0 0q21.87091-7.948258 13.922652-29.819168Z" fill="#FFFFFF" p-id="2383"></path><path d="M331.4432 370.7392a17.2544 17.2544 0 0 0 29.3888-3.584l5.9648-13.5168a26.112 26.112 0 0 1 14.9504-13.9264l30.1056-10.9312a15.2576 15.2576 0 0 0 8.8832-20.224 15.0272 15.0272 0 0 0-18.4576-8.6016c-47.7696 15.4368-67.0976 29.3888-73.9584 57.5232a15.6672 15.6672 0 0 0 3.1488 13.2608z" fill="#FFFFFF" p-id="2384"></path></svg>